<?xml version="1.0" encoding="UTF-8"?>
<!-- 2023-04-16 23:04:31 Generated by QCAD 3.27.6 SVG Exporter -->
<svg width="177.3735mm" height="95.3565mm" viewBox="-40.4114 -12 59.1245 31.7855" version="1.1" xmlns="http://www.w3.org/2000/svg" style="stroke-linecap:round;stroke-linejoin:round;fill:none">
    <g transform="scale(1,-1)">
        <!-- Line -->
        <path d="M-10.9772,2.2554 L-30,2.2554 " style="stroke:#008080;stroke-width:0.0833;"/>
        <!-- Line -->
        <path d="M-10.9541,-2.1449 L-30,-2.1449 " style="stroke:#000080;stroke-width:0.0833;"/>
        <!-- Line -->
        <path d="M-13.9399,-10.3279 L-15.4965,-10.3279 " style="stroke:#008080;stroke-width:0.0833;"/>
        <!-- Line -->
        <path d="M-20.4965,-10.3279 L-22.5271,-10.3279 " style="stroke:#008080;stroke-width:0.0833;"/>
        <!-- Polyline -->
        <path d="M-22.5271,-10.3279 L-22.5162,2.4789" style="stroke:#008080;stroke-width:0.0833;"/>
        <!-- Polyline -->
        <path d="M-13.9399,-14.2405 L-26.0132,-14.2405 L-26.0132,-2.0577" style="stroke:#000080;stroke-width:0.0833;"/>
        <!-- Polyline -->
        <path d="M-7.834,-16.7855 L-13.9399,-16.7845 L-13.9399,-7.7207 L-7.8053,-7.7217" style="stroke:#000000;stroke-width:0.0833;"/>
        <!-- Spline -->
        <path d="M-7.8053,-7.7217 C-5.3734,-7.7217 -3.3764,-9.7519 -3.3764,-12.2536" style="stroke:#000000;stroke-width:0.0833;"/>
        <!-- Arc -->
        <path d="M-3.3764,-12.2536 A4.4968,4.4968 0 0,0 -7.834,-16.7855" style="stroke:#000000;stroke-width:0.0833;"/>
        <!-- Polyline -->
        <path d="M-3.3457,0 L-0.1728,0" style="stroke:#000000;stroke-width:0.0833;"/>
        <!-- Polyline -->
        <path d="M-3.3764,-12.2536 L-0.2036,-12.2536" style="stroke:#000000;stroke-width:0.0833;"/>
        <!-- Spline -->
        <path d="M-13.3714,-5.0964 C-13.3803,-5.0968 -10.7187,-4.6183 -10.7187,0" style="stroke:#000000;stroke-width:0.0833;"/>
        <!-- Spline -->
        <path d="M-10.7187,0 C-10.7187,4.6637 -13.3717,5.0964 -13.3714,5.0964" style="stroke:#000000;stroke-width:0.0833;"/>
        <!-- Spline -->
        <path d="M-13.3714,5.0964 C-9.0861,4.6293 -6.2952,5.2908 -3.3457,0" style="stroke:#000000;stroke-width:0.0833;"/>
        <!-- Spline -->
        <path d="M-3.3457,0 C-5.545,-4.6782 -8.4291,-4.9002 -13.3714,-5.0964" style="stroke:#000000;stroke-width:0.0833;"/>
        <!-- Spline -->
        <path d="M-14.0821,-4.9736 C-14.091,-4.974 -11.4293,-4.507 -11.4293,0" style="stroke:#000000;stroke-width:0.0833;"/>
        <!-- Spline -->
        <path d="M-11.4293,0 C-11.4293,4.5513 -14.0823,4.9736 -14.0821,4.9736" style="stroke:#000000;stroke-width:0.0833;"/>
        <!-- Arc -->
        <path d="M-25.3693,-2.0596 A0.6439,0.6439 0 0,0 -26.0151,-2.7016" style="stroke:#000080;stroke-width:0.0833;"/>
        <!-- Arc -->
        <path d="M-21.8705,2.4004 A0.6439,0.6439 0 0,0 -22.5163,1.7584" style="stroke:#008080;stroke-width:0.0833;"/>
        <!-- Arc -->
        <path d="M-26.0151,-2.7016 A0.6438,0.6438 0 0,0 -26.6606,-2.0596" style="stroke:#000080;stroke-width:0.0833;"/>
        <!-- Arc -->
        <path d="M-22.5163,1.7584 A0.6438,0.6438 0 0,0 -23.1619,2.4004" style="stroke:#008080;stroke-width:0.0833;"/>
        <!-- Arc -->
        <path d="M-26.6606,-2.0596 A0.6438,0.6438 0 0,0 -26.0151,-1.4177" style="stroke:#000080;stroke-width:0.0833;"/>
        <!-- Arc -->
        <path d="M-23.1619,2.4004 A0.6438,0.6438 0 0,0 -22.5163,3.0423" style="stroke:#008080;stroke-width:0.0833;"/>
        <!-- Arc -->
        <path d="M-26.0151,-1.4177 A0.6439,0.6439 0 0,0 -25.3693,-2.0596" style="stroke:#000080;stroke-width:0.0833;"/>
        <!-- Arc -->
        <path d="M-22.5163,3.0423 A0.6439,0.6439 0 0,0 -21.8705,2.4004" style="stroke:#008080;stroke-width:0.0833;"/>
        <!-- Text: Bout -->
        <g>
            <path d="M3.8575,-16.6934 L3.8575,-8.6934 L6.05,-8.6934 C6.7195,-8.6934 7.2513,-8.8598 7.6455,-9.1927 C8.0398,-9.5255 8.2369,-9.9728 8.2369,-10.5344 C8.2369,-10.9844 8.116,-11.3786 7.8743,-11.7171 C7.6325,-12.0555 7.2997,-12.2991 6.8757,-12.4479 L6.8757,-12.4702 C7.4038,-12.5372 7.8222,-12.7427 8.1309,-13.0867 C8.4396,-13.4307 8.5939,-13.8686 8.5939,-14.4005 C8.5939,-15.0774 8.3624,-15.6288 7.8994,-16.0546 C7.4363,-16.4804 6.8366,-16.6934 6.1002,-16.6934 Z M4.6051,-9.3684 L4.6051,-12.208 L5.6651,-12.208 C6.2118,-12.208 6.6469,-12.0723 6.9705,-11.8008 C7.2941,-11.5293 7.4559,-11.1536 7.4559,-10.6738 C7.4559,-10.2387 7.3182,-9.9123 7.043,-9.6948 C6.7678,-9.4772 6.3568,-9.3684 5.8101,-9.3684 Z M4.6051,-12.8831 L4.6051,-16.0183 L5.9831,-16.0183 C6.5707,-16.0183 7.0235,-15.8779 7.3415,-15.5971 C7.6595,-15.3163 7.8185,-14.923 7.8185,-14.4172 C7.8185,-13.904 7.6465,-13.52 7.3024,-13.2652 C6.9584,-13.0104 6.4424,-12.8831 5.7543,-12.8831 Z" style="fill:#000000;fill-rule:evenodd;"/>
            <path d="M10.5097,-16.7469 C10.1735,-16.7469 9.9064,-16.6387 9.7086,-16.4222 C9.5107,-16.2058 9.4118,-15.922 9.4118,-15.5709 C9.4118,-15.1901 9.5148,-14.8922 9.7209,-14.6772 C9.9269,-14.4622 10.2025,-14.354 10.5476,-14.3525 C10.8809,-14.3525 11.1427,-14.4585 11.3331,-14.6705 C11.5235,-14.8825 11.6188,-15.1752 11.6188,-15.5486 C11.6188,-15.9086 11.5191,-16.1983 11.3197,-16.4178 C11.1204,-16.6372 10.8504,-16.7469 10.5097,-16.7469 M10.5253,-16.4992 C10.7812,-16.4992 10.9783,-16.4163 11.1167,-16.2504 C11.255,-16.0845 11.3242,-15.8521 11.3242,-15.5531 C11.3242,-15.2466 11.255,-15.0112 11.1167,-14.8468 C10.9783,-14.6824 10.7827,-14.6002 10.5298,-14.6002 C10.2784,-14.6002 10.0783,-14.6857 9.9295,-14.8568 C9.7807,-15.0279 9.7063,-15.2645 9.7063,-15.5665 C9.7063,-15.8506 9.78,-16.0771 9.9273,-16.246 C10.0745,-16.4148 10.2739,-16.4992 10.5253,-16.4992 M13.9702,-16.6934 L13.6846,-16.6934 L13.6846,-16.3051 L13.6757,-16.3051 C13.5968,-16.4524 13.4975,-16.5628 13.3778,-16.6365 C13.258,-16.7101 13.1171,-16.7469 12.9549,-16.7469 C12.6841,-16.7469 12.4811,-16.664 12.3457,-16.4981 C12.2103,-16.3322 12.1426,-16.0834 12.1426,-15.7517 L12.1426,-14.4083 L12.4283,-14.4083 L12.4283,-15.6959 C12.4283,-15.9711 12.4766,-16.1738 12.5733,-16.304 C12.67,-16.4341 12.8195,-16.4992 13.0218,-16.4992 C13.2167,-16.4992 13.3759,-16.4275 13.4994,-16.2839 C13.6229,-16.1403 13.6846,-15.9503 13.6846,-15.7137 L13.6846,-14.4083 L13.9702,-14.4083 Z M15.7131,-16.6554 C15.6565,-16.6837 15.5985,-16.7049 15.539,-16.719 C15.4795,-16.7332 15.4126,-16.7402 15.3382,-16.7402 C15.1745,-16.7402 15.0462,-16.6908 14.9532,-16.5918 C14.8603,-16.4929 14.8138,-16.3475 14.8138,-16.1556 L14.8138,-14.6582 L14.4121,-14.6582 L14.4121,-14.4083 L14.8138,-14.4083 L14.8138,-13.8281 L15.0994,-13.7344 L15.0994,-14.4083 L15.6885,-14.4083 L15.6885,-14.6582 L15.0994,-14.6582 L15.0994,-16.1221 C15.0994,-16.253 15.1236,-16.3479 15.1719,-16.4066 C15.2203,-16.4654 15.2913,-16.4948 15.385,-16.4948 C15.4341,-16.4948 15.4795,-16.4888 15.5212,-16.4769 C15.5628,-16.465 15.6,-16.4501 15.6327,-16.4323 Z" style="fill:#000000;fill-rule:evenodd;"/>
        </g>
        <!-- Text: D -->
        <g>
            <path d="M3.7462,-4 L3.7462,4 L5.855,4 C7.2236,4 8.2566,3.6736 8.954,3.0209 C9.6513,2.3682 10,1.3966 10,0.106 C10,-1.1474 9.6188,-2.145 8.8563,-2.887 C8.0939,-3.629 7.0581,-4 5.749,-4 Z M4.4937,3.325 L4.4937,-3.325 L5.7155,-3.325 C6.835,-3.325 7.6997,-3.0302 8.3096,-2.4407 C8.9196,-1.8512 9.2245,-1.0098 9.2245,0.0837 C9.2245,1.1808 8.9391,1.9954 8.3682,2.5272 C7.7973,3.059 6.941,3.325 5.7992,3.325 Z" style="fill:#000000;fill-rule:evenodd;"/>
        </g>
        <!-- Text: A -->
        <g>
            <path d="M-37.4114,1 L-34.371,9 L-33.6234,9 L-30.5886,1 L-31.4198,1 L-32.2789,3.3152 L-35.749,3.3152 L-36.5858,1 Z M-35.4923,3.9902 L-32.53,3.9902 L-33.8522,7.5941 C-33.8819,7.676 -33.9079,7.7643 -33.9303,7.8591 C-33.9526,7.954 -33.9768,8.0572 -34.0028,8.1688 L-34.0251,8.1688 C-34.0511,8.0497 -34.0772,7.9428 -34.1032,7.848 C-34.1292,7.7531 -34.1553,7.6704 -34.1813,7.5997 Z" style="fill:#008080;fill-rule:evenodd;"/>
        </g>
        <!-- Text: B -->
        <g>
            <path d="M-35.3682,-9 L-35.3682,-1 L-33.1757,-1 C-32.5063,-1 -31.9744,-1.1664 -31.5802,-1.4993 C-31.186,-1.8322 -30.9888,-2.2794 -30.9888,-2.841 C-30.9888,-3.291 -31.1097,-3.6853 -31.3515,-4.0237 C-31.5932,-4.3622 -31.9261,-4.6058 -32.3501,-4.7545 L-32.3501,-4.7768 C-31.8219,-4.8438 -31.4035,-5.0493 -31.0948,-5.3933 C-30.7861,-5.7373 -30.6318,-6.1753 -30.6318,-6.7071 C-30.6318,-7.384 -30.8633,-7.9354 -31.3264,-8.3612 C-31.7894,-8.7871 -32.3891,-9 -33.1255,-9 Z M-34.6206,-1.675 L-34.6206,-4.5146 L-33.5607,-4.5146 C-33.0139,-4.5146 -32.5788,-4.3789 -32.2552,-4.1074 C-31.9317,-3.8359 -31.7699,-3.4603 -31.7699,-2.9805 C-31.7699,-2.5453 -31.9075,-2.219 -32.1827,-2.0014 C-32.4579,-1.7838 -32.8689,-1.675 -33.4156,-1.675 Z M-34.6206,-5.1897 L-34.6206,-8.325 L-33.2427,-8.325 C-32.655,-8.325 -32.2022,-8.1846 -31.8842,-7.9038 C-31.5662,-7.623 -31.4073,-7.2297 -31.4073,-6.7238 C-31.4073,-6.2106 -31.5793,-5.8266 -31.9233,-5.5718 C-32.2673,-5.3171 -32.7834,-5.1897 -33.4714,-5.1897 Z" style="fill:#000080;fill-rule:evenodd;"/>
        </g>
        <!-- Hatch -->
        <path d="M-22.5163,1.7584 A0.64382,0.64382 0 0 0 -23.1619,2.4004 A0.64379,0.64379 0 0 0 -22.5163,3.0423 A0.643862,0.643862 0 0 0 -21.8705,2.4004 A0.643891,0.643891 0 0 0 -22.5163,1.7584" style="fill:#008080;fill-rule:evenodd;"/>
        <!-- Hatch -->
        <path d="M-26.0151,-2.7016 A0.64382,0.64382 0 0 0 -26.6606,-2.0596 A0.64379,0.64379 0 0 0 -26.0151,-1.4177 A0.643862,0.643862 0 0 0 -25.3693,-2.0596 A0.643891,0.643891 0 0 0 -26.0151,-2.7016" style="fill:#000080;fill-rule:evenodd;"/>
        <!-- Line -->
        <path d="M-15.7465,-10.3279 L-20.4965,-8.3279 " style="stroke:#000000;stroke-width:0.0833;"/>
        <!-- Line -->
        <path d="M-20.4965,-8.3279 L-20.4965,-12.3279 " style="stroke:#000000;stroke-width:0.0833;"/>
        <!-- Line -->
        <path d="M-20.4965,-12.3279 L-15.7465,-10.3279 " style="stroke:#000000;stroke-width:0.0833;"/>
        <!-- Circle -->
        <!-- Circle -->
        <circle cx="-15.49654957428004" cy="-10.32794675617676" r="0.5" style="stroke:#000000;stroke-width:0.0833;"/>
        <!-- Hatch -->
        <path d="M-14.9965,-10.3279 A0.5,0.5 0 0 1 -15.9965,-10.3279 A0.5,0.5 0 0 1 -14.9965,-10.3279" style="fill:#000000;fill-rule:evenodd;"/>
    </g>
</svg>
