<?xml version="1.0" encoding="UTF-8"?>
<!-- 2023-04-16 23:35:14 Generated by QCAD 3.27.6 SVG Exporter -->
<svg width="304.27mm" height="149.1286mm" viewBox="-40.4114 -12 101.4233 49.7095" version="1.1" xmlns="http://www.w3.org/2000/svg" style="stroke-linecap:round;stroke-linejoin:round;fill:none">
    <g transform="scale(1,-1)">
        <!-- Line -->
        <path d="M-10.9772,2.2554 L-30,2.2554 " style="stroke:#008080;stroke-width:0.0833;"/>
        <!-- Line -->
        <path d="M18.8192,-12.2536 L7.28,-12.2536 " style="stroke:#008080;stroke-width:0.0833;"/>
        <!-- Line -->
        <path d="M-10.9541,-2.1449 L-30,-2.1449 " style="stroke:#000080;stroke-width:0.0833;"/>
        <!-- Line -->
        <path d="M18.8422,-16.6539 L3.7832,-16.6539 " style="stroke:#000080;stroke-width:0.0833;"/>
        <!-- Line -->
        <path d="M-13.9399,-10.3279 L-15.4965,-10.3279 " style="stroke:#008080;stroke-width:0.0833;"/>
        <!-- Line -->
        <path d="M15.8565,-24.837 L14.2998,-24.837 " style="stroke:#008080;stroke-width:0.0833;"/>
        <!-- Line -->
        <path d="M-20.4965,-10.3279 L-22.5271,-10.3279 " style="stroke:#008080;stroke-width:0.0833;"/>
        <!-- Line -->
        <path d="M9.2998,-24.837 L7.2693,-24.837 " style="stroke:#008080;stroke-width:0.0833;"/>
        <!-- Polyline -->
        <path d="M-22.5271,-10.3279 L-22.5162,2.4789" style="stroke:#008080;stroke-width:0.0833;"/>
        <!-- Polyline -->
        <path d="M7.2693,-24.837 L7.28,-12.2536" style="stroke:#008080;stroke-width:0.0833;"/>
        <!-- Polyline -->
        <path d="M-13.9399,-14.2405 L-26.0132,-14.2405 L-26.0132,-2.0577" style="stroke:#000080;stroke-width:0.0833;"/>
        <!-- Polyline -->
        <path d="M15.8565,-28.7495 L3.7832,-28.7495 L3.7832,-16.6539" style="stroke:#000080;stroke-width:0.0833;"/>
        <!-- Polyline -->
        <path d="M-7.834,-16.7855 L-13.9399,-16.7845 L-13.9399,-7.7207 L-7.8053,-7.7217" style="stroke:#000000;stroke-width:0.0833;"/>
        <!-- Polyline -->
        <path d="M21.9624,-31.2945 L15.8565,-31.2936 L15.8565,-22.2297 L21.991,-22.2307" style="stroke:#000000;stroke-width:0.0833;"/>
        <!-- Spline -->
        <path d="M-7.8053,-7.7217 C-5.3734,-7.7217 -3.3764,-9.7519 -3.3764,-12.2536" style="stroke:#000000;stroke-width:0.0833;"/>
        <!-- Spline -->
        <path d="M21.991,-22.2307 C24.4229,-22.2307 26.4199,-24.2609 26.4199,-26.7626" style="stroke:#000000;stroke-width:0.0833;"/>
        <!-- Arc -->
        <path d="M-3.3764,-12.2536 A4.4968,4.4968 0 0,0 -7.834,-16.7855" style="stroke:#000000;stroke-width:0.0833;"/>
        <!-- Arc -->
        <path d="M26.4199,-26.7626 A4.4968,4.4968 0 0,0 21.9624,-31.2945" style="stroke:#000000;stroke-width:0.0833;"/>
        <!-- Polyline -->
        <path d="M-3.3457,0 L-0.1728,0" style="stroke:#000000;stroke-width:0.0833;"/>
        <!-- Polyline -->
        <path d="M-3.3764,-12.2536 L-0.2036,-12.2536" style="stroke:#000080;stroke-width:0.0833;"/>
        <!-- Spline -->
        <path d="M-13.3714,-5.0964 C-13.3803,-5.0968 -10.7187,-4.6183 -10.7187,0" style="stroke:#000000;stroke-width:0.0833;"/>
        <!-- Spline -->
        <path d="M16.425,-19.6055 C16.416,-19.6058 19.0777,-19.1273 19.0777,-14.509" style="stroke:#000000;stroke-width:0.0833;"/>
        <!-- Spline -->
        <path d="M-10.7187,0 C-10.7187,4.6637 -13.3717,5.0964 -13.3714,5.0964" style="stroke:#000000;stroke-width:0.0833;"/>
        <!-- Spline -->
        <path d="M19.0777,-14.509 C19.0777,-9.8453 16.4247,-9.4126 16.425,-9.4126" style="stroke:#000000;stroke-width:0.0833;"/>
        <!-- Spline -->
        <path d="M-13.3714,5.0964 C-9.0861,4.6293 -6.2952,5.2908 -3.3457,0" style="stroke:#000000;stroke-width:0.0833;"/>
        <!-- Spline -->
        <path d="M16.425,-9.4126 C20.7103,-9.8797 23.5012,-9.2182 26.4507,-14.509" style="stroke:#000000;stroke-width:0.0833;"/>
        <!-- Spline -->
        <path d="M30.7898,-24.7623 C35.7857,-25.1066 38.5766,-24.4451 41.5262,-29.7359" style="stroke:#000000;stroke-width:0.0833;"/>
        <!-- Spline -->
        <path d="M-3.3457,0 C-5.545,-4.6782 -8.4291,-4.9002 -13.3714,-5.0964" style="stroke:#000000;stroke-width:0.0833;"/>
        <!-- Spline -->
        <path d="M26.4507,-14.509 C24.2513,-19.1872 21.3673,-19.4093 16.425,-19.6055" style="stroke:#000000;stroke-width:0.0833;"/>
        <!-- Spline -->
        <path d="M41.5262,-29.7359 C39.3268,-34.4141 36.4428,-34.6361 30.7898,-34.7095" style="stroke:#000000;stroke-width:0.0833;"/>
        <!-- Spline -->
        <path d="M-14.0821,-4.9736 C-14.091,-4.974 -11.4293,-4.507 -11.4293,0" style="stroke:#000000;stroke-width:0.0833;"/>
        <!-- Spline -->
        <path d="M15.7143,-19.4827 C15.7054,-19.483 18.367,-19.016 18.367,-14.509" style="stroke:#000000;stroke-width:0.0833;"/>
        <!-- Spline -->
        <path d="M30.7898,-34.7095 C30.7809,-34.7099 33.4425,-34.2429 33.4425,-29.7359" style="stroke:#000000;stroke-width:0.0833;"/>
        <!-- Spline -->
        <path d="M-11.4293,0 C-11.4293,4.5513 -14.0823,4.9736 -14.0821,4.9736" style="stroke:#000000;stroke-width:0.0833;"/>
        <!-- Spline -->
        <path d="M18.367,-14.509 C18.367,-9.9577 15.7141,-9.5354 15.7143,-9.5354" style="stroke:#000000;stroke-width:0.0833;"/>
        <!-- Spline -->
        <path d="M33.4425,-29.7359 C33.4425,-25.1846 30.7895,-24.7623 30.7898,-24.7623" style="stroke:#000000;stroke-width:0.0833;"/>
        <!-- Arc -->
        <path d="M-25.3693,-2.0596 A0.6439,0.6439 0 0,0 -26.0151,-2.7016" style="stroke:#000080;stroke-width:0.0833;"/>
        <!-- Arc -->
        <path d="M-21.8705,2.4004 A0.6439,0.6439 0 0,0 -22.5163,1.7584" style="stroke:#008080;stroke-width:0.0833;"/>
        <!-- Arc -->
        <path d="M-26.0151,-2.7016 A0.6438,0.6438 0 0,0 -26.6606,-2.0596" style="stroke:#000080;stroke-width:0.0833;"/>
        <!-- Arc -->
        <path d="M-22.5163,1.7584 A0.6438,0.6438 0 0,0 -23.1619,2.4004" style="stroke:#008080;stroke-width:0.0833;"/>
        <!-- Arc -->
        <path d="M-26.6606,-2.0596 A0.6438,0.6438 0 0,0 -26.0151,-1.4177" style="stroke:#000080;stroke-width:0.0833;"/>
        <!-- Arc -->
        <path d="M-23.1619,2.4004 A0.6438,0.6438 0 0,0 -22.5163,3.0423" style="stroke:#008080;stroke-width:0.0833;"/>
        <!-- Arc -->
        <path d="M-26.0151,-1.4177 A0.6439,0.6439 0 0,0 -25.3693,-2.0596" style="stroke:#000080;stroke-width:0.0833;"/>
        <!-- Arc -->
        <path d="M-22.5163,3.0423 A0.6439,0.6439 0 0,0 -21.8705,2.4004" style="stroke:#008080;stroke-width:0.0833;"/>
        <!-- Text: Bout -->
        <g>
            <path d="M46.1564,-33.9118 L46.1564,-25.9118 L48.3488,-25.9118 C49.0183,-25.9118 49.5501,-26.0783 49.9444,-26.4111 C50.3386,-26.744 50.5357,-27.1912 50.5357,-27.7528 C50.5357,-28.2029 50.4148,-28.5971 50.1731,-28.9355 C49.9314,-29.274 49.5985,-29.5176 49.1745,-29.6664 L49.1745,-29.6887 C49.7026,-29.7556 50.121,-29.9611 50.4297,-30.3051 C50.7384,-30.6492 50.8928,-31.0871 50.8928,-31.6189 C50.8928,-32.2958 50.6612,-32.8472 50.1982,-33.2731 C49.7352,-33.6989 49.1354,-33.9118 48.399,-33.9118 Z M46.9039,-26.5869 L46.9039,-29.4265 L47.9639,-29.4265 C48.5106,-29.4265 48.9458,-29.2907 49.2693,-29.0192 C49.5929,-28.7477 49.7547,-28.3721 49.7547,-27.8923 C49.7547,-27.4572 49.6171,-27.1308 49.3419,-26.9132 C49.0666,-26.6956 48.6557,-26.5869 48.1089,-26.5869 Z M46.9039,-30.1015 L46.9039,-33.2368 L48.2819,-33.2368 C48.8695,-33.2368 49.3223,-33.0964 49.6403,-32.8156 C49.9583,-32.5348 50.1173,-32.1415 50.1173,-31.6357 C50.1173,-31.1224 49.9453,-30.7384 49.6013,-30.4837 C49.2572,-30.2289 48.7412,-30.1015 48.0532,-30.1015 Z" style="fill:#000000;fill-rule:evenodd;"/>
            <path d="M52.8085,-33.9654 C52.4723,-33.9654 52.2053,-33.8572 52.0074,-33.6407 C51.8095,-33.4242 51.7106,-33.1405 51.7106,-32.7894 C51.7106,-32.4085 51.8136,-32.1106 52.0197,-31.8956 C52.2257,-31.6807 52.5013,-31.5724 52.8465,-31.571 C53.1797,-31.571 53.4415,-31.677 53.632,-31.889 C53.8224,-32.1009 53.9176,-32.3936 53.9176,-32.7671 C53.9176,-33.1271 53.8179,-33.4168 53.6186,-33.6362 C53.4192,-33.8557 53.1492,-33.9654 52.8085,-33.9654 M52.8241,-33.7177 C53.08,-33.7177 53.2771,-33.6347 53.4155,-33.4689 C53.5539,-33.303 53.623,-33.0705 53.623,-32.7715 C53.623,-32.4651 53.5539,-32.2296 53.4155,-32.0652 C53.2771,-31.9009 53.0815,-31.8187 52.8286,-31.8187 C52.5772,-31.8187 52.3771,-31.9042 52.2283,-32.0753 C52.0796,-32.2464 52.0052,-32.4829 52.0052,-32.7849 C52.0052,-33.0691 52.0788,-33.2956 52.2261,-33.4644 C52.3734,-33.6333 52.5727,-33.7177 52.8241,-33.7177 M56.2691,-33.9118 L55.9834,-33.9118 L55.9834,-33.5235 L55.9745,-33.5235 C55.8957,-33.6708 55.7964,-33.7813 55.6766,-33.8549 C55.5569,-33.9286 55.4159,-33.9654 55.2537,-33.9654 C54.983,-33.9654 54.7799,-33.8824 54.6445,-33.7166 C54.5092,-33.5507 54.4415,-33.3019 54.4415,-32.9701 L54.4415,-31.6267 L54.7271,-31.6267 L54.7271,-32.9143 C54.7271,-33.1896 54.7754,-33.3923 54.8721,-33.5224 C54.9688,-33.6526 55.1184,-33.7177 55.3207,-33.7177 C55.5156,-33.7177 55.6748,-33.6459 55.7982,-33.5023 C55.9217,-33.3588 55.9834,-33.1687 55.9834,-32.9322 L55.9834,-31.6267 L56.2691,-31.6267 Z M58.0119,-33.8739 C57.9554,-33.9022 57.8973,-33.9234 57.8378,-33.9375 C57.7783,-33.9516 57.7114,-33.9587 57.637,-33.9587 C57.4734,-33.9587 57.345,-33.9092 57.2521,-33.8103 C57.1591,-33.7114 57.1126,-33.5659 57.1126,-33.374 L57.1126,-31.8767 L56.7109,-31.8767 L56.7109,-31.6267 L57.1126,-31.6267 L57.1126,-31.0466 L57.3982,-30.9528 L57.3982,-31.6267 L57.9873,-31.6267 L57.9873,-31.8767 L57.3982,-31.8767 L57.3982,-33.3406 C57.3982,-33.4715 57.4224,-33.5663 57.4708,-33.6251 C57.5191,-33.6838 57.5901,-33.7132 57.6839,-33.7132 C57.733,-33.7132 57.7783,-33.7073 57.82,-33.6954 C57.8616,-33.6835 57.8988,-33.6686 57.9316,-33.6507 Z" style="fill:#000000;fill-rule:evenodd;"/>
        </g>
        <!-- Text: D -->
        <g>
            <path d="M45.9826,-18.5148 L45.9826,-10.5148 L48.0914,-10.5148 C49.46,-10.5148 50.493,-10.8412 51.1904,-11.4939 C51.8877,-12.1466 52.2364,-13.1183 52.2364,-14.4088 C52.2364,-15.6622 51.8552,-16.6599 51.0927,-17.4019 C50.3303,-18.1438 49.2945,-18.5148 47.9854,-18.5148 Z M46.7301,-11.1899 L46.7301,-17.8398 L47.9519,-17.8398 C49.0714,-17.8398 49.9361,-17.545 50.546,-16.9555 C51.156,-16.3661 51.4609,-15.5246 51.4609,-14.4311 C51.4609,-13.334 51.1755,-12.5195 50.6046,-11.9876 C50.0337,-11.4558 49.1774,-11.1899 48.0356,-11.1899 Z" style="fill:#000000;fill-rule:evenodd;"/>
        </g>
        <!-- Text: A -->
        <g>
            <path d="M-37.4114,1 L-34.371,9 L-33.6234,9 L-30.5886,1 L-31.4198,1 L-32.2789,3.3152 L-35.749,3.3152 L-36.5858,1 Z M-35.4923,3.9902 L-32.53,3.9902 L-33.8522,7.5941 C-33.8819,7.676 -33.9079,7.7643 -33.9303,7.8591 C-33.9526,7.954 -33.9768,8.0572 -34.0028,8.1688 L-34.0251,8.1688 C-34.0511,8.0497 -34.0772,7.9428 -34.1032,7.848 C-34.1292,7.7531 -34.1553,7.6704 -34.1813,7.5997 Z" style="fill:#008080;fill-rule:evenodd;"/>
        </g>
        <!-- Text: B -->
        <g>
            <path d="M-35.3682,-9 L-35.3682,-1 L-33.1757,-1 C-32.5063,-1 -31.9744,-1.1664 -31.5802,-1.4993 C-31.186,-1.8322 -30.9888,-2.2794 -30.9888,-2.841 C-30.9888,-3.291 -31.1097,-3.6853 -31.3515,-4.0237 C-31.5932,-4.3622 -31.9261,-4.6058 -32.3501,-4.7545 L-32.3501,-4.7768 C-31.8219,-4.8438 -31.4035,-5.0493 -31.0948,-5.3933 C-30.7861,-5.7373 -30.6318,-6.1753 -30.6318,-6.7071 C-30.6318,-7.384 -30.8633,-7.9354 -31.3264,-8.3612 C-31.7894,-8.7871 -32.3891,-9 -33.1255,-9 Z M-34.6206,-1.675 L-34.6206,-4.5146 L-33.5607,-4.5146 C-33.0139,-4.5146 -32.5788,-4.3789 -32.2552,-4.1074 C-31.9317,-3.8359 -31.7699,-3.4603 -31.7699,-2.9805 C-31.7699,-2.5453 -31.9075,-2.219 -32.1827,-2.0014 C-32.4579,-1.7838 -32.8689,-1.675 -33.4156,-1.675 Z M-34.6206,-5.1897 L-34.6206,-8.325 L-33.2427,-8.325 C-32.655,-8.325 -32.2022,-8.1846 -31.8842,-7.9038 C-31.5662,-7.623 -31.4073,-7.2297 -31.4073,-6.7238 C-31.4073,-6.2106 -31.5793,-5.8266 -31.9233,-5.5718 C-32.2673,-5.3171 -32.7834,-5.1897 -33.4714,-5.1897 Z" style="fill:#000080;fill-rule:evenodd;"/>
        </g>
        <!-- Text: Bin -->
        <g>
            <path d="M-35.2822,-24 L-35.2822,-16 L-33.0897,-16 C-32.4203,-16 -31.8884,-16.1664 -31.4942,-16.4993 C-31.1,-16.8322 -30.9028,-17.2794 -30.9028,-17.841 C-30.9028,-18.291 -31.0237,-18.6853 -31.2655,-19.0237 C-31.5072,-19.3622 -31.8401,-19.6058 -32.2641,-19.7545 L-32.2641,-19.7768 C-31.7359,-19.8438 -31.3175,-20.0493 -31.0088,-20.3933 C-30.7001,-20.7373 -30.5458,-21.1753 -30.5458,-21.7071 C-30.5458,-22.384 -30.7773,-22.9354 -31.2404,-23.3612 C-31.7034,-23.7871 -32.3031,-24 -33.0395,-24 Z M-34.5346,-16.675 L-34.5346,-19.5146 L-33.4747,-19.5146 C-32.9279,-19.5146 -32.4928,-19.3789 -32.1692,-19.1074 C-31.8457,-18.8359 -31.6839,-18.4603 -31.6839,-17.9805 C-31.6839,-17.5453 -31.8215,-17.219 -32.0967,-17.0014 C-32.3719,-16.7838 -32.7829,-16.675 -33.3296,-16.675 Z M-34.5346,-20.1897 L-34.5346,-23.325 L-33.1567,-23.325 C-32.569,-23.325 -32.1162,-23.1846 -31.7982,-22.9038 C-31.4802,-22.623 -31.3212,-22.2297 -31.3212,-21.7238 C-31.3212,-21.2106 -31.4933,-20.8266 -31.8373,-20.5718 C-32.1813,-20.3171 -32.6974,-20.1897 -33.3854,-20.1897 Z" style="fill:#000080;fill-rule:evenodd;"/>
            <path d="M-29.4245,-21.157 C-29.4855,-21.157 -29.5375,-21.1355 -29.5807,-21.0923 C-29.6238,-21.0492 -29.6454,-20.9971 -29.6454,-20.9361 C-29.6454,-20.8751 -29.6238,-20.8238 -29.5807,-20.7821 C-29.5375,-20.7405 -29.4847,-20.7197 -29.4222,-20.7197 C-29.3612,-20.7197 -29.3092,-20.7405 -29.266,-20.7821 C-29.2229,-20.8238 -29.2013,-20.8751 -29.2013,-20.9361 C-29.2013,-20.9971 -29.2225,-21.0492 -29.2649,-21.0923 C-29.3073,-21.1355 -29.3605,-21.157 -29.4245,-21.157 M-29.2839,-24 L-29.5695,-24 L-29.5695,-21.7149 L-29.2839,-21.7149 Z M-26.7178,-24 L-27.0034,-24 L-27.0034,-22.6834 C-27.0034,-22.4245 -27.0503,-22.2304 -27.144,-22.101 C-27.2377,-21.9715 -27.3783,-21.9068 -27.5658,-21.9068 C-27.7651,-21.9068 -27.9306,-21.9816 -28.0623,-22.1311 C-28.194,-22.2806 -28.2598,-22.4677 -28.2598,-22.6923 L-28.2598,-24 L-28.5454,-24 L-28.5454,-21.7149 L-28.2598,-21.7149 L-28.2598,-22.1121 L-28.2509,-22.1121 C-28.1661,-21.9604 -28.0597,-21.847 -27.9317,-21.7718 C-27.8038,-21.6967 -27.655,-21.6591 -27.4854,-21.6591 C-27.2355,-21.6591 -27.0451,-21.7406 -26.9142,-21.9035 C-26.7833,-22.0664 -26.7178,-22.2996 -26.7178,-22.6031 Z" style="fill:#000080;fill-rule:evenodd;"/>
        </g>
        <!-- Hatch -->
        <path d="M-22.5163,1.7584 A0.64382,0.64382 0 0 0 -23.1619,2.4004 A0.64379,0.64379 0 0 0 -22.5163,3.0423 A0.643862,0.643862 0 0 0 -21.8705,2.4004 A0.643891,0.643891 0 0 0 -22.5163,1.7584" style="fill:#008080;fill-rule:evenodd;"/>
        <!-- Hatch -->
        <path d="M7.2817,-12.8956 A0.64382,0.64382 0 0 0 6.6361,-12.2536 A0.64379,0.64379 0 0 0 7.2817,-11.6117 A0.643862,0.643862 0 0 0 7.9275,-12.2536 A0.643891,0.643891 0 0 0 7.2817,-12.8956" style="fill:#008080;fill-rule:evenodd;"/>
        <!-- Hatch -->
        <path d="M-26.0151,-2.7016 A0.64382,0.64382 0 0 0 -26.6606,-2.0596 A0.64379,0.64379 0 0 0 -26.0151,-1.4177 A0.643862,0.643862 0 0 0 -25.3693,-2.0596 A0.643891,0.643891 0 0 0 -26.0151,-2.7016" style="fill:#000080;fill-rule:evenodd;"/>
        <!-- Hatch -->
        <path d="M3.7813,-20.642 A0.64382,0.64382 0 0 0 3.1358,-20 A0.64379,0.64379 0 0 0 3.7813,-19.3581 A0.643862,0.643862 0 0 0 4.4271,-20 A0.643891,0.643891 0 0 0 3.7813,-20.642" style="fill:#000080;fill-rule:evenodd;"/>
        <!-- Line -->
        <path d="M-15.7465,-10.3279 L-20.4965,-8.3279 " style="stroke:#000000;stroke-width:0.0833;"/>
        <!-- Line -->
        <path d="M14.0498,-24.837 L9.2998,-22.837 " style="stroke:#000000;stroke-width:0.0833;"/>
        <!-- Line -->
        <path d="M-20.4965,-8.3279 L-20.4965,-12.3279 " style="stroke:#000000;stroke-width:0.0833;"/>
        <!-- Line -->
        <path d="M9.2998,-22.837 L9.2998,-26.837 " style="stroke:#000000;stroke-width:0.0833;"/>
        <!-- Line -->
        <path d="M-20.4965,-12.3279 L-15.7465,-10.3279 " style="stroke:#000000;stroke-width:0.0833;"/>
        <!-- Line -->
        <path d="M9.2998,-26.837 L14.0498,-24.837 " style="stroke:#000000;stroke-width:0.0833;"/>
        <!-- Circle -->
        <!-- Circle -->
        <!-- Circle -->
        <circle cx="-15.49654957428004" cy="-10.32794675617676" r="0.5" style="stroke:#000000;stroke-width:0.0833;"/>
        <!-- Circle -->
        <circle cx="14.2998315318384" cy="-24.83697252707103" r="0.5" style="stroke:#000000;stroke-width:0.0833;"/>
        <!-- Hatch -->
        <path d="M-14.9965,-10.3279 A0.5,0.5 0 0 1 -15.9965,-10.3279 A0.5,0.5 0 0 1 -14.9965,-10.3279" style="fill:#000000;fill-rule:evenodd;"/>
        <!-- Hatch -->
        <path d="M14.7998,-24.837 A0.5,0.5 0 0 1 13.7998,-24.837 A0.5,0.5 0 0 1 14.7998,-24.837" style="fill:#000000;fill-rule:evenodd;"/>
        <!-- Line -->
        <path d="M-30,-20 L0,-20 " style="stroke:#000080;stroke-width:0.0833;"/>
        <!-- Line -->
        <path d="M0,-20 L3.7832,-20 " style="stroke:#000080;stroke-width:0.0833;"/>
        <!-- Circle -->
        <circle cx="7.280016650427057" cy="-12.25358098503276" r="0.6438910531424517" style="stroke:#008080;stroke-width:0.0833;"/>
        <!-- Line -->
        <path d="M-0.1728,0 L7.28,0 " style="stroke:#008080;stroke-width:0.0833;"/>
        <!-- Line -->
        <path d="M7.28,-12.2536 L7.28,-12.2536 " style="stroke:#000000;stroke-width:0.0833;"/>
        <!-- Line -->
        <path d="M7.28,-12.2536 L7.28,0 " style="stroke:#008080;stroke-width:0.0833;"/>
        <!-- Line -->
        <path d="M26.4199,-26.7626 L32.9199,-26.7626 " style="stroke:#008080;stroke-width:0.0833;"/>
        <!-- Line -->
        <path d="M26.5,-33 L32.7679,-33 " style="stroke:#000080;stroke-width:0.0833;"/>
        <!-- Line -->
        <path d="M41.5262,-29.7359 L45.4507,-29.7359 " style="stroke:#000080;stroke-width:0.0833;"/>
        <!-- Line -->
        <path d="M-0.2036,-12.2536 L0,-33 " style="stroke:#000080;stroke-width:0.0833;"/>
        <!-- Line -->
        <path d="M0,-33 L26.5,-33 " style="stroke:#000080;stroke-width:0.0833;"/>
        <!-- Line -->
        <path d="M26.4507,-14.509 L45.4507,-14.509 " style="stroke:#000000;stroke-width:0.0833;"/>
    </g>
</svg>
