<svg width="165" height="106" xmlns="http://www.w3.org/2000/svg" xmlns:xlink="http://www.w3.org/1999/xlink" xml:space="preserve" overflow="hidden"><defs><clipPath id="clip0"><rect x="48" y="315" width="165" height="106"/></clipPath></defs><g clip-path="url(#clip0)" transform="translate(-48 -315)"><path d="M96.9325 17.7481C17.135 17.7481 17.135 17.7481 17.135 17.7481" stroke="#000000" stroke-width="1.57738" fill="none" fill-rule="evenodd" transform="matrix(1.00581 0 0 1 48 315)"/><path d="M97.9521 36.8689C17.135 36.8689 17.135 36.8689 17.135 36.8689" stroke="#000000" stroke-width="1.57738" fill="none" fill-rule="evenodd" transform="matrix(1.00581 0 0 1 48 315)"/><path d="M85.2048 71.286C61.2402 71.286 61.2402 71.286 61.2402 71.286L61.2402 17.7481" stroke="#000000" stroke-width="1.57738" fill="none" fill-rule="evenodd" transform="matrix(1.00581 0 0 1 48 315)"/><path d="M85.9695 88.8775 46.4535 88.8775 46.4535 36.8689" stroke="#000000" stroke-width="1.57738" fill="none" fill-rule="evenodd" transform="matrix(1.00581 0 0 1 48 315)"/><path d="M106.538 79.5025 146.382 79.5025" stroke="#000000" stroke-width="1.45235" stroke-linecap="round" fill="none" fill-rule="evenodd" transform="matrix(1.00581 0 0 1 48 315)"/><path d="M95.4964 98.8495 76.5764 98.8495 76.5764 60.1555 95.6181 60.1555C105.94 60.1555 114.416 68.8228 114.416 79.5025 114.416 90.1823 105.94 98.8495 95.4964 98.8495Z" stroke="#000000" stroke-width="1.57738" stroke-linejoin="round" fill="#FFFFFF" fill-rule="evenodd" transform="matrix(1.00581 0 0 1 48 315)"/><path d="M121.518 27.7123 147.096 27.7123" stroke="#000000" stroke-width="1.48866" stroke-linecap="round" fill="none" fill-rule="evenodd" transform="matrix(1.00581 0 0 1 48 315)"/><path d="M79.0538 49.7016C79.0159 49.7031 90.313 47.6603 90.313 27.9447 90.313 8.03515 79.0528 6.18778 79.0538 6.18788 97.2424 8.18209 109.088 5.35785 121.607 27.9447 112.272 47.916 100.031 48.864 79.0538 49.7016Z" stroke="#000000" stroke-width="1.57738" stroke-linejoin="round" fill="#FFFFFF" fill-rule="evenodd" transform="matrix(1.00581 0 0 1 48 315)"/><path d="M72.1991 49.1774C72.1613 49.1789 83.4583 47.1852 83.4583 27.9447 83.4583 8.51488 72.1981 6.71202 72.1991 6.71212" stroke="#000000" stroke-width="1.57738" stroke-linecap="round" stroke-linejoin="round" fill="none" fill-rule="evenodd" transform="matrix(1.00581 0 0 1 48 315)"/><text font-family="Arial,Arial_MSFontService,sans-serif" font-weight="400" font-size="28" transform="matrix(0.507692 0 0 0.504762 198.145 348)">S</text><text font-family="Arial,Arial_MSFontService,sans-serif" font-weight="400" font-size="28" transform="matrix(0.507692 0 0 0.504762 198.734 399)">C</text><path d="M104.654 63.3713C104.654 64.8851 103.427 66.1122 101.913 66.1122 100.4 66.1122 99.1731 64.8851 99.1731 63.3713 99.1731 61.8581 100.4 60.631 101.913 60.631 103.427 60.631 104.654 61.8581 104.654 63.3713Z" stroke="#000000" stroke-width="1.57738" stroke-linecap="square" stroke-linejoin="bevel" transform="matrix(1.00581 0 0 1 -7.84615 288.752)"/><path d="M104.654 63.3713C104.654 64.8851 103.427 66.1122 101.913 66.1122 100.4 66.1122 99.1731 64.8851 99.1731 63.3713 99.1731 61.8581 100.4 60.631 101.913 60.631 103.427 60.631 104.654 61.8581 104.654 63.3713Z" stroke="#000000" stroke-width="1.57738" stroke-linecap="square" stroke-linejoin="bevel" transform="matrix(1.00581 0 0 1 7.02639 269.313)"/><text font-family="Arial,Arial_MSFontService,sans-serif" font-weight="400" font-size="28" transform="matrix(0.507692 0 0 0.504762 52.8201 336)">A</text><text font-family="Arial,Arial_MSFontService,sans-serif" font-weight="400" font-size="28" transform="matrix(0.507692 0 0 0.504762 52.6084 357)">B</text></g></svg>